<svg xmlns="http://www.w3.org/2000/svg" width="256" height="256" viewBox="0 0 67.7 67.7">
  <path d="M1.1 1.1h65.6v65.6H1.1z" style="opacity:.5;fill:#e1e7ff;fill-opacity:1;stroke:#696969;stroke-width:.529167;stroke-linejoin:round;stroke-dasharray:none;stroke-opacity:1"/>
  <path d="M11.2 62.7q-1.4 0-2.4-1.5-1-1.6-1.5-4.2-.7-2.6-1-5.5L6 45.7l-.2-5v-2.9q0-6.9.6-14 .6-7 1.9-13.8l.6-2.3q.4-1.3 1.2-2.2.8-1 2.2-1 3 0 3 3v.8l-.2.9-.6 3.5-.7 3.5q-.8 4.8-1.2 9.6-.4 4.8-.4 9.6 0 5.5.3 11Q13 51.7 14 57l.3 1.4v1.4q0 1.5-.8 2.2-.8.6-2.3.6zm26.2 0q-2.7 0-5.5-.6t-5-1.9q-2.4-1.4-3.9-3.6-1.4-2.2-1.4-5.4 0-4 2.1-6.4 2.2-2.4 5.5-3.6Q32.5 40 36 40q2.2 0 4.3.4l4.2.7-.1-6v-6h-19q-1.6 0-2.6-.6t-1-2.3q0-1.6 1-2.2 1-.6 2.5-.6h19L44 18l-.1-5.4H26.5q-1.5 0-2.6-.6-1-.6-1-2.2 0-3 3.2-3h31.6q1.5 0 2.5.7 1 .6 1 2.3 0 1.6-1 2.2-1 .6-2.5.6H50l.1 5.4.2 5.3h8.6q1.5 0 2.5.6t1 2.2q0 1.7-1 2.3-1 .6-2.5.6h-8.6l.2 14q1.2.4 3.4 1.7 2.2 1.1 4.5 2.7 2.4 1.6 4 3.2t1.6 3q0 3.3-3.2 3.3-1 0-1.8-.7l-1.6-1.4q-1.5-1.5-3.3-2.7-1.7-1.3-3.6-2.3 0 6.9-3.1 9.8-3.1 3-10 3zm-.8-5.7q3.7 0 5.8-1.8 2-2 2-5.8V47q-2-.7-4-1-2.1-.5-4.3-.5-1.9 0-3.8.5-2 .4-3.2 1.7-1.3 1.1-1.3 3.5 0 2.2 1.4 3.5 1.5 1.3 3.5 1.8t3.9.5z" style="fill:navy;stroke-width:.263429"/>
</svg>
