<svg xmlns="http://www.w3.org/2000/svg" xml:space="preserve" id="Layer_1" width="260" height="60" x="0" y="0" version="1.1">
  <style id="style1" type="text/css">
    .st0{fill:#1d9bf0}
  </style>
  <g id="Dark_Blue" style="display:inline;stroke-width:.9992;stroke-dasharray:none" transform="scale(.65 .15)">
    <rect id="rect2" width="400" height="400" x="0" y="0" rx="19.36" ry="70.66" style="display:inline;fill:#000;fill-opacity:1;fill-rule:evenodd;stroke:none;stroke-width:.9992;stroke-linecap:round;stroke-miterlimit:12;stroke-dasharray:none;stroke-opacity:1"/>
  </g>
  <path id="path6" d="M20.65 6.03 40.6 32.1 21.74 53.61l8.01.06 14.58-16.7L57.1 53.63l16.16-.03-20.72-27.4L70.2 6.05l-8.02-.03-13.45 15.02-11.5-15.02z" style="display:inline;fill:#fff;fill-opacity:1;fill-rule:evenodd;stroke:none;stroke-width:0;stroke-linecap:butt;stroke-linejoin:miter;stroke-dasharray:none;stroke-opacity:1"/>
  <path id="path7" d="m30.07 10.6 29.25 38.24 4.48.01L34.92 10.6z" style="display:inline;fill:#000;fill-opacity:1;fill-rule:evenodd;stroke:none;stroke-width:1px;stroke-linecap:butt;stroke-linejoin:miter;stroke-opacity:1"/>
  <path id="text1" d="M131.1 7.8q-.99-.98-2.35-.98-1.37 0-2.35.98t-.98 2.35q0 1.41.93 2.4.98.98 2.34.98 1.42 0 2.4-.98.99-.99.99-2.4 0-1.37-.99-2.35zm2.07 6.82q-1.86 1.8-4.48 1.8-2.56 0-4.42-1.8-1.8-1.85-1.8-4.42 0-2.62 1.8-4.47 1.86-1.86 4.42-1.86 2.62 0 4.48 1.86 1.85 1.85 1.85 4.47 0 2.57-1.85 4.42zM94.9 31.48q.6-.98 1.64-1.36.5-.16.93-.16.6 0 1.2.27 1.03.49 1.42 1.58.1.44.1.82 0 .65-.32 1.25-3.28 5.57-7.53 10.8-.77.94-2.02 1.1h-.44q-.98 0-1.85-.55-1.04-.7-1.04-2.07 0-.93.65-1.69 4.15-4.58 7.26-9.99zm32.58-8.35h-13.64q-.44 0-.44.39V49.7q0 4.75-5.18 4.75-3 0-5.73-.17-1.2-.05-2.08-.92-.98-.99-.98-2.3 0-.87.71-1.52.66-.6 1.53-.6h.27q2.02.21 3.66.21 1.09 0 1.58-.43.5-.5.55-1.64V23.52q0-.39-.44-.39H90.61q-1.15 0-1.97-.76-.88-.82-.88-2.02 0-1.15.88-1.96.82-.71 1.85-.71h.22q1.1.05 2.02.05h14.57q.44 0 .44-.38v-4.8l-.06-1.37q0-1.14.77-2.02.81-.98 2.07-.98h.1q1.26 0 2.14.98.7.88.7 1.97l-.05 1.47v4.75q0 .38.44.38h13.59q.98 0 2.07-.05h.22q1.04 0 1.85.7.82.77.82 1.97 0 1.15-.82 1.97-.87.81-2.02.81h-2.07zm-5.84 10.65q-.43-.66-.43-1.37 0-.27.05-.54.22-1.04 1.15-1.59.7-.38 1.52-.38.33 0 .66.06 1.2.21 1.9 1.2 3.06 4.14 6.45 9.93.43.65.43 1.42 0 .38-.1.81-.33 1.15-1.42 1.75-.66.38-1.37.38-.43 0-.82-.1-1.14-.39-1.74-1.42-3.17-5.79-6.28-10.15zm56.65-21.89q.49-.05.87-.05 1.85 0 3.16.93.77.54.93 1.52.06.28.06.5 0 .65-.33 1.25l-.44.98q-3.82 8.95-8.9 15.6-.27.34.06.6 6.66 5.8 13.6 13.65.75.93.75 2.08v.27q-.1 1.36-1.14 2.24l-.11.1q-.82.71-1.91.71h-.38q-1.26-.1-2.08-1.14-5.34-6.82-12.5-13.48-.32-.27-.6 0-8.67 9.17-18.33 14.3-.93.49-1.9.49-.4 0-.77-.06-1.42-.27-2.46-1.3l-.05-.06q-.6-.66-.6-1.47 0-.22.05-.5.22-1.09 1.26-1.58 5.67-2.62 10.86-6.66 5.23-4.03 9.16-8.45 2.79-3.11 5.24-7.1 2.46-4.04 3.55-7.31 0-.11-.11-.22-.05-.16-.22-.16h-20.08q-1.15 0-2.95.1h-.22q-1.14 0-1.96-.76-.98-.87-.98-2.13 0-1.25.98-2.12.82-.77 1.97-.77h.21q1.8.11 2.95.11h20.74q1.42 0 2.62-.1zm61.17 18.72q1.26.55 1.75 1.8.21.6.21 1.2 0 .66-.27 1.31l-.05.16q-.5 1.15-1.7 1.64-.54.17-1.09.17-.65 0-1.3-.33-8.08-3.88-17.9-7.1-.11-.05-.28.06-.1.05-.1.22V46.6l.16 4.15q0 1.14-.77 2.02-.87.98-2.13.98h-.43q-1.31 0-2.13-.98-.82-.88-.82-2.02l.16-4.15V14.3l-.16-3.34q0-1.09.77-1.96.81-.98 2.12-.98h.44q1.26 0 2.13.98.82.87.82 2.02l-.17 3.27v8.3q0 .43.39.54 10.85 3.33 20.35 7.48z" aria-label="ポスト" style="font-size:55.8803px;font-family:&quot;Gen Jyuu Gothic&quot;;-inkscape-font-specification:&quot;Gen Jyuu Gothic, Normal&quot;;fill:#fff;stroke-width:1.04776"/>
</svg>
