<!--Generator: Adobe Illustrator 24.2.3, SVG Export Plug-In . SVG Version: 6.00 Build 0)--><svg version="1.1" id="Layer_1" x="0" y="0" xml:space="preserve" width="260" height="60" xmlns="http://www.w3.org/2000/svg"><style type="text/css" id="style1">.st0{fill:#1d9bf0}</style><g id="Dark_Blue" transform="scale(.65 .15)"><rect style="fill:#1185fe;fill-opacity:1;fill-rule:evenodd;stroke:none;stroke-width:9.54644;stroke-linecap:round;stroke-miterlimit:12;stroke-opacity:1" id="rect2" width="400" height="400" x="0" y="0" ry="70.655" rx="19.362"/></g><path d="M31.173 28.296c3.58-7.286 8.185-13.717 13.816-19.293 1.913-1.802 4.088-3.113 6.525-3.934 3.365-.958 5.297.423 5.795 4.143-.088 6-.523 11.97-1.305 17.912-1.212 4.725-4.04 7.53-8.482 8.412-1.5.243-3.01.354-4.528.335a16.022 16.022 0 0 1 5.757 2.594c3.216 2.698 3.766 5.948 1.65 9.751-1.565 2.404-3.497 4.371-5.795 5.901-3.45 2.004-6.456 1.405-9.02-1.8a22.042 22.042 0 0 1-2.917-5.356 427.01 427.01 0 0 1-1.496-4.269c-.491 1.423-.99 2.846-1.497 4.269a22.041 22.041 0 0 1-2.917 5.357c-2.564 3.204-5.57 3.803-9.02 1.8-2.298-1.53-4.23-3.498-5.795-5.902-2.116-3.803-1.566-7.053 1.65-9.75a16.023 16.023 0 0 1 5.758-2.595 26.121 26.121 0 0 1-4.53-.335c-4.441-.883-7.269-3.687-8.481-8.412A154.733 154.733 0 0 1 5.036 9.212c.499-3.72 2.43-5.101 5.795-4.143 2.437.82 4.612 2.132 6.525 3.934 5.63 5.576 10.236 12.007 13.817 19.293z" fill="currentColor" id="path1-0" style="fill:#fff;fill-opacity:1;stroke-width:.041654"/><path style="font-weight:600;font-size:50.8731px;font-family:&quot;IBM Plex Sans JP&quot;;-inkscape-font-specification:&quot;IBM Plex Sans JP, Semi-Bold&quot;;stroke-width:2.38469" d="M64.088 47.713v-37.29h17.094q4.527 0 7.173 2.646Q91 15.663 91 19.987q0 3.917-1.882 5.85-1.882 1.934-4.68 2.137v.356q1.78.051 3.612.967 1.831.916 3.052 2.849 1.272 1.933 1.272 4.884 0 2.95-1.272 5.392-1.22 2.442-3.408 3.867-2.188 1.424-4.935 1.424zm15.67-21.621q2.034 0 3.153-1.068 1.12-1.12 1.12-3.104v-1.628q0-1.933-1.12-3.052-1.119-1.12-3.154-1.12h-8.953v9.972zm1.068 15.923q2.085 0 3.306-1.17t1.221-3.205v-1.78q0-1.984-1.22-3.104-1.17-1.119-3.307-1.119H70.804v10.378zm24.724 5.698q-3.307 0-4.986-1.679-1.627-1.679-1.627-4.782V8.185h6.511v34.339h3.714v5.19zm17.653.661q-4.273 0-6.614-2.848-2.34-2.9-2.34-8.09v-17.55h6.512v16.89q0 3.103 1.17 4.68 1.17 1.526 3.612 1.526 2.391 0 4.02-1.17 1.678-1.221 1.678-3.46V19.885h6.512v27.828h-6.512v-4.63h-.254q-2.086 5.291-7.784 5.291zm33.78 0q-4.07 0-7.02-1.78-2.9-1.78-4.478-5.087-1.577-3.307-1.577-7.733 0-4.375 1.527-7.682 1.526-3.307 4.425-5.087 2.951-1.78 6.92-1.78 4.12 0 6.918 1.881 2.849 1.832 4.222 4.986 1.425 3.154 1.425 7.122v2.188h-18.62v.763q0 3.205 1.78 5.087 1.781 1.883 5.088 1.883 2.391 0 4.12-1.018 1.781-1.068 3.104-2.9l3.561 3.867q-1.679 2.442-4.68 3.866-2.95 1.424-6.715 1.424zm-6.258-16.991h11.803v-.509q0-3.103-1.526-4.884-1.476-1.831-4.172-1.831-2.747 0-4.426 1.882-1.679 1.882-1.679 4.935zm33.78 16.991q-3.765 0-6.563-1.322-2.747-1.323-4.883-3.867l4.07-3.866q3.255 3.917 7.681 3.917 2.391 0 3.561-.865 1.221-.915 1.221-2.543 0-1.323-.865-2.086-.864-.814-2.747-1.068l-2.696-.356q-4.528-.611-6.868-2.595-2.34-2.035-2.34-5.749 0-4.019 2.849-6.359 2.9-2.39 7.58-2.39 3.816 0 6.257 1.067 2.442 1.069 4.528 3.307l-3.866 3.867q-1.272-1.374-3.002-2.239-1.73-.865-3.663-.865-2.187 0-3.306.865-1.12.814-1.12 2.239 0 1.424.865 2.187.916.763 2.95 1.068l2.799.407q8.954 1.221 8.954 8.191 0 2.696-1.425 4.731-1.424 2.035-4.019 3.205-2.543 1.12-5.952 1.12zm24.063-.66h-6.512V8.183h6.512v24.064h.254l3.714-5.037 6.563-7.326h7.376L216.76 30.62l10.632 17.093h-7.784l-7.325-12.667-3.714 4.07zm23.35 10.682v-5.189h4.935l1.374-4.222-10.022-29.1h6.512l5.087 15.262 1.679 6.716h.305l1.882-6.716 5.037-15.262h6.206L243.57 52.851q-1.069 3.002-2.747 4.274-1.68 1.271-4.986 1.271z" id="text1" aria-label="Bluesky"/></svg>