<svg xmlns="http://www.w3.org/2000/svg" id="svg4" width="260" height="60" version="1.1"><defs id="defs1"><style id="style1">.cls-1{fill:#fff}</style></defs><rect id="rect4" width="260" height="60" x="0" y="0" fill="#00a4de" fill-opacity="1" fill-rule="evenodd" stroke="none" stroke-linecap="round" stroke-miterlimit="12" stroke-width="11.3" rx="12.1" ry="10.9"/><path id="path1" stroke-width="3.1" d="M33.6 30.7a7.5 7.5 0 0 0-5.2-2.3 8.6 8.6 0 0 0 4.5-2.4 6.3 6.3 0 0 0 1.3-4.3 7.6 7.6 0 0 0-1-3.8 6.8 6.8 0 0 0-2.7-2.5 11.3 11.3 0 0 0-3.6-1.2 54.8 54.8 0 0 0-7.4-.3h-8.7v31.4h9a57.7 57.7 0 0 0 7.6-.3 12.6 12.6 0 0 0 4-1.3 7.3 7.3 0 0 0 3.2-3 9 9 0 0 0 1-4.4 8 8 0 0 0-2-5.6zm-14.8-9.9h1.8a8.7 8.7 0 0 1 4.4.8 2.8 2.8 0 0 1 1 2.5 2.6 2.6 0 0 1-1.1 2.3 9.4 9.4 0 0 1-4.4.7h-1.7zM26 39a8.8 8.8 0 0 1-4.3.8h-3.2v-7h3.2a8.2 8.2 0 0 1 4.3.7 3.1 3.1 0 0 1 1.1 2.8 2.7 2.7 0 0 1-1.1 2.7z" class="cls-1"/><circle id="circle1" cx="44.6" cy="41.3" r="4" stroke-width="3.1" class="cls-1"/><path id="path2" stroke-width="3.1" d="M41.1 13.9h7v21h-7z" class="cls-1"/><path id="path3" fill="none" stroke-width="3.1" d="M9.3 7.6h232.9v44H9.2Z"/><path id="path4" stroke-width="3.1" d="M87.8 21.1a5.2 5.2 0 0 0-.3.7s0 .5-.2 1a32 32 0 0 1-19.8 22.7 18.7 18.7 0 0 0-4.4-5.8 24.2 24.2 0 0 0 17.4-17h-15a33.4 33.4 0 0 0-5.2.2v-6.3a30.6 30.6 0 0 0 5.4.4h14.9a23 23 0 0 0 2.6 0v-.2a14.4 14.4 0 0 0-1.4-2.3l3.2-1a20.9 20.9 0 0 1 3 5.5l-1.6.3zm1.7-8.8a15.4 15.4 0 0 1 2.7 5.2l-2.7 1a20.9 20.9 0 0 0-2.7-5.3zm10.1 9.6a43.5 43.5 0 0 1 3.4 8.8l-5.4 1.7a44.2 44.2 0 0 0-3.1-9zm20.2.6a13.6 13.6 0 0 0-.5 2.2 31.2 31.2 0 0 1-4.3 11.2 25.2 25.2 0 0 1-7.3 7 47.6 47.6 0 0 1-4.2 2.4 17.7 17.7 0 0 0-3.8-5 19.6 19.6 0 0 0 13-11.8 24.4 24.4 0 0 0 1.5-7.4zm-12.5-2a35.5 35.5 0 0 1 3.3 8.5l-5.4 1.6a41 41 0 0 0-3.1-8.7zm34.1-6a4.8 4.8 0 0 0-.4 1s0 .3-.3.5l-.3.7-.7 1.5h8.8a5.8 5.8 0 0 0 2.5-.4l2.9 2.8a8.6 8.6 0 0 0-1 2.5 36.7 36.7 0 0 1-7.2 13.7 35.8 35.8 0 0 1-12.8 9 16 16 0 0 0-4.1-5.3 30.4 30.4 0 0 0 11.6-7.1 24.4 24.4 0 0 0 5.8-10h-9.3a32.5 32.5 0 0 1-7.8 8.8 17.3 17.3 0 0 0-5-4 27.3 27.3 0 0 0 9.3-10.6 13.2 13.2 0 0 0 1.4-4.2zm22.4 8-5.6.1v-6.1a43.3 43.3 0 0 0 5.7.3h18.9a6.5 6.5 0 0 0 2.4-.4l3.4 3.8a8 8 0 0 0-1.5 2.2 46.5 46.5 0 0 1-11 13.2l4 5.3-5.1 4a58.5 58.5 0 0 0-6.8-9 51.7 51.7 0 0 0-7-7l4.8-3.2a53.5 53.5 0 0 1 6 5.5 38.3 38.3 0 0 0 5.4-5.5 23.9 23.9 0 0 0 2.2-3.4zm26.4 3.7a49 49 0 0 0 7.1.3H214a56.6 56.6 0 0 0 7.1-.3v6.5a67.3 67.3 0 0 0-7.3 0h-23.5zm50.4-11.6a5 5 0 0 0-.4.9s0 .3-.3.5l-.3.7-.7 1.5h8.7a5.8 5.8 0 0 0 2.6-.4l2.9 2.8a8.5 8.5 0 0 0-1 2.5 36.7 36.7 0 0 1-7.1 13.6 35.8 35.8 0 0 1-12.8 9 16.1 16.1 0 0 0-4.2-5.3 30.4 30.4 0 0 0 11.6-7 24.4 24.4 0 0 0 5.8-10h-9.2a32.4 32.4 0 0 1-7.9 8.8 17.3 17.3 0 0 0-5-4.1 27.3 27.3 0 0 0 9.3-10.6 13.2 13.2 0 0 0 1.5-4.2z" class="cls-1"/></svg>