<svg xmlns="http://www.w3.org/2000/svg" xml:space="preserve" id="svg4" width="260" height="60" version="1.1"><defs id="defs1"><style id="style1">.cls-1{fill:#06c755}</style></defs><rect id="rect4" width="260" height="60" x="0" y="0" fill="#06c755" fill-opacity="1" fill-rule="evenodd" stroke-linecap="round" stroke-miterlimit="12" stroke-width="2" rx="9.8" ry="8.6"/><g id="Layer_2" data-name="Layer 2" transform="matrix(.4 0 0 .4 8.2 .4)"><g id="LINE_LOGO" data-name="LINE LOGO" transform="matrix(.5 0 0 .5 -5.7 -7.7)"><path id="path1" fill="#fff" d="M266.7 145c0-47.8-47.9-86.7-106.7-86.7S53.3 97.2 53.3 145c0 42.8 38 78.7 89.2 85.4 3.5.8 8.2 2.3 9.4 5.3 1 2.7.7 7 .3 9.6l-1.5 9.2c-.4 2.7-2.1 10.5 9.3 5.7s61.4-36.1 83.8-62c15.4-16.9 22.9-34.1 22.9-53.2z"/><path id="path2" d="M231.2 172.5h-30a2 2 0 0 1-2-2v-46.6a2 2 0 0 1 2-2h30a2 2 0 0 1 2 2v7.6a2 2 0 0 1-2 2h-20.4v7.9h20.4a2 2 0 0 1 2 2v7.6a2 2 0 0 1-2 2h-20.4v7.9h20.4a2 2 0 0 1 2 2v7.5a2 2 0 0 1-2 2z" class="cls-1"/><path id="path3" d="M120.3 172.5a2 2 0 0 0 2-2v-7.6a2 2 0 0 0-2-2H99.9v-37a2 2 0 0 0-2-2h-7.6a2 2 0 0 0-2 2v46.6a2 2 0 0 0 2 2h30z" class="cls-1"/><rect id="rect3" width="11.6" height="50.6" x="128.7" y="121.8" class="cls-1" rx="2"/><path id="path4" d="M189.8 121.8h-7.5a2 2 0 0 0-2 2v27.7L159 122.7a1.2 1.2 0 0 0-.2-.2h-.1l-.1-.2h-.2l-.2-.1h-8.4a2 2 0 0 0-2 2v46.5a2 2 0 0 0 2 2h7.5a2 2 0 0 0 2-2v-27.9l21.4 28.8a2 2 0 0 0 .5.5l.1.1h.5a2.4 2.4 0 0 0 .5.1h7.5a2 2 0 0 0 2-2V124a2 2 0 0 0-2-2z" class="cls-1"/></g></g><path id="text4" fill="#fff" stroke-width="1" d="M80.9 18.7v20.5h10.7v3.9H76.1V18.7Zm15.8 24.4V18.7h5.1v24.4zm11 0V18.7h4.6l10 16.6V18.7h4.7v24.4h-4.6l-10-16.6v16.6zM137 22.5v6h9.8V32h-9.8v7.2h10.4v3.8h-15.1V18.7h15.1v3.8zm40.3 9.5-3.4 1.6q-1.3-2.6-2.9-5.3l3.5-1.7 2.8 5.4zm5.4-1-3.5 1.6-2.9-5.4 3.5-1.8 3 5.5zM152 19.3q13.5 0 27.4-.7l.2 4q-8 .7-12 3.6-4.1 2.9-4.1 7.2 0 3.5 2.2 5.6 2.3 2 6 2 2 0 4-.5l.6 4q-2.5.5-4.8.5-5.8 0-9.3-3-3.5-3-3.5-8.2 0-3.2 1.9-6 2-2.8 5.4-4.7l-14 .2zm41.7 3.4-2.8 2.6q-2.7-3-5.8-6.1l3-2.6q3 3 5.6 6zm-9 5.5h7.8v10.5q.8 1.4 2 2 1.1.7 3.7 1 2.6.3 7.7.3h9l-.3 3.7h-8.8q-6.6 0-10-.8-3.3-.6-5-2.4-2 1.9-4.7 3.7l-2-3.5q2.3-1.5 4.2-3V32h-3.7zm9.3 2.8v-3.6h8.5v-3.1h-7.9v-3.6h4.6l-2.1-4 3.7-1q1.4 2.2 2.7 5h2.3q1.4-2.4 2.6-5l3.8.8q-.9 2.2-2 4.2h3.4v3.6h-6.8v3.1h7.4v3.6h-6.8q3.4 3.6 6.5 8l-3.3 2.3q-3-4.4-5.5-7.2-2.6 4.7-8.3 7.1L194 38q6.2-2.4 7.7-7zm43.7 9.5q3.6-1.4 3.6-5 0-2.4-1.6-3.6-1.6-1.1-5.2-1.1-3.5 0-6.6.7-3 .8-6.8 2.7l-1.5-3 15.6-9.5h-13.3V18H243v3.8l-10.9 6q2.2-.4 4.1-.4 4.8 0 7.2 2 2.5 2 2.5 5.6 0 4.7-3.5 7.3-3.4 2.6-9.7 2.6-5 0-7.5-1.6-2.4-1.4-2.4-4.3 0-2.2 2-3.7 2.2-1.6 5.9-1.6 3.8 0 5.5 1.3 1.7 1.3 1.7 3.8 0 .8-.3 1.7zm-4 .8q.5-1.2.5-2 0-1.1-.8-1.6-.8-.6-2.9-.6-1.6 0-2.5.6-.9.5-.9 1.3 0 2.3 5.7 2.3h.8z" aria-label="LINEで送る" font-family="Mgen+ 1p" font-size="33.3" font-weight="700" letter-spacing="0" style="line-height:39.0627px;-inkscape-font-specification:&quot;Mgen+ 1p, Bold&quot;" word-spacing="0"/></svg>