<svg version="1.1" id="Layer_1" x="0" y="0" xml:space="preserve" width="260" height="60" xmlns="http://www.w3.org/2000/svg"><style type="text/css" id="style1">.st0{fill:#1d9bf0}</style><g id="Dark_Blue" transform="scale(.65 .15)" style="display:inline;stroke-width:.9992;stroke-dasharray:none"><rect style="display:inline;fill:#000;fill-opacity:1;fill-rule:evenodd;stroke:none;stroke-width:.9992;stroke-linecap:round;stroke-miterlimit:12;stroke-dasharray:none;stroke-opacity:1" id="rect2" width="400" height="400" x="0" y="0" ry="70.655" rx="19.362"/></g><path style="display:inline;fill:#fff;fill-opacity:1;fill-rule:evenodd;stroke:none;stroke-width:0;stroke-linecap:butt;stroke-linejoin:miter;stroke-dasharray:none;stroke-opacity:1" d="m11.868 6.83 19.95 26.06-18.86 21.515 8.006.059 14.578-16.695 12.767 16.656 16.169-.022-20.722-27.397L61.402 6.84l-8.022-.027-13.451 15.019-11.49-15.026Z" id="path6"/><path style="display:inline;fill:#000;fill-opacity:1;fill-rule:evenodd;stroke:none;stroke-width:1px;stroke-linecap:butt;stroke-linejoin:miter;stroke-opacity:1" d="m21.28 11.402 29.25 38.234 4.483.015-28.88-38.267Z" id="path7"/><path style="font-weight:500;font-size:41.3942px;line-height:27.7194px;font-family:&quot;Rounded Mplus 1c&quot;;-inkscape-font-specification:&quot;Rounded Mplus 1c, Medium&quot;;letter-spacing:0;word-spacing:0;fill:#fff;stroke-width:1.10877px" d="M83.205 45.552q-.621.663-1.532.663-.91 0-1.573-.663-.62-.62-.62-1.531V12.147q0-.91.62-1.531.662-.663 1.573-.663.91 0 1.532.663.662.62.662 1.531v31.874q0 .91-.662 1.531zm28.52-35.267q.952 0 1.656.703.704.704.704 1.656v31.004q0 .911-.663 1.573-.662.663-1.573.663h-.082q-.911 0-1.532-.621-.62-.621-.62-1.532 0-.331-.332-.331H93.47q-.33 0-.33.372 0 .87-.622 1.49-.62.622-1.49.622t-1.49-.621q-.621-.621-.621-1.49V12.643q0-.952.704-1.656.703-.703 1.655-.703zm-2.11 29.017V28.664q0-.373-.373-.373h-15.73q-.373 0-.373.373v10.638q0 .372.373.372h15.73q.372 0 .372-.372zm0-15.109v-9.728q0-.372-.373-.372h-15.73q-.373 0-.373.372v9.728q0 .373.373.373h15.73q.372 0 .372-.373zm41.642-11.094q.662-.62 1.573-.538.91.083 1.49.745.62.621.58 1.532-.663 13.826-6.168 20.366-5.506 6.54-17.924 8.527-.87.124-1.614-.372-.704-.497-.87-1.366-.165-.787.29-1.45.497-.703 1.325-.869 10.928-1.862 15.44-7.326 4.553-5.506 5.174-17.758.041-.911.704-1.49zm-26.368 13.205q-.953-3.85-2.525-9.562-.249-.828.206-1.573.456-.745 1.325-.952.91-.166 1.656.29.786.455 1.035 1.324 1.862 6.582 2.608 9.562.207.87-.29 1.656-.456.745-1.325.952-.91.207-1.697-.29-.786-.496-.993-1.407zm15.398-.207q-.455.787-1.366.952-.91.166-1.697-.33-.786-.498-.993-1.408-1.077-4.388-2.608-9.976-.249-.87.207-1.615.496-.745 1.366-.952.91-.207 1.697.29.828.455 1.076 1.366 1.49 5.381 2.608 9.976.207.91-.29 1.697zm25.168 4.14q-.828.165-1.49-.332-.663-.496-.828-1.366-.124-.827.33-1.49.498-.662 1.326-.828 7.782-1.407 15.067-4.926 7.327-3.518 12.501-8.361.58-.58 1.407-.538.87 0 1.408.62.58.663.538 1.532-.041.87-.662 1.449-4.347 4.098-10.597 7.492-.249.125-.166.456.042.165.042.58v17.674q0 .953-.704 1.656-.662.704-1.614.704-.953 0-1.656-.704-.663-.703-.663-1.656V26.221q0-.372-.33-.207-6.748 2.98-13.91 4.223zm40.69-.414q-.91 0-1.531-.621-.621-.621-.621-1.532 0-.91.62-1.531.622-.621 1.532-.621h29.639q.91 0 1.531.62.621.621.621 1.532 0 .91-.62 1.532-.622.62-1.532.62zm49.342 14.156q-.662.663-1.614.663-.952 0-1.615-.663-.662-.662-.662-1.614v-29.39q0-.952.662-1.614.663-.662 1.615-.662t1.614.662q.663.662.663 1.614v9.231q0 .373.29.414 10.348 2.525 20.53 6.168.829.29 1.201 1.117.414.828.124 1.698-.29.827-1.117 1.241-.787.373-1.615.083-9.52-3.436-19.082-5.836-.331-.083-.331.248v15.026q0 .952-.663 1.614z" id="text7" transform="scale(.9019 1.10877)" aria-label="旧ツイート"/></svg>