<svg height="60" width="260" viewBox="-204.8 -341.333 384.569 153.6" version="1.1" id="svg2" xmlns="http://www.w3.org/2000/svg"><rect style="fill:#1877f2;fill-opacity:1;fill-rule:evenodd;stroke-width:1.55766;stroke-linecap:round;stroke-miterlimit:12" id="rect2" width="665.6" height="153.6" x="-345.315" y="-341.333" rx="23.018" ry="22.706"/><path d="m-209.068-251.91 3.947-25.735h-24.692v-16.701c0-7.04 3.449-13.904 14.509-13.904h11.227v-21.91s-10.19-1.739-19.93-1.739c-20.337 0-33.629 12.325-33.629 34.64v19.614h-22.605v25.736h22.605v62.214a89.702 89.702 0 0 0 13.912 1.082c4.732 0 9.378-.37 13.91-1.082v-62.214h20.746" fill="#fff" id="path2" style="stroke-width:.130418"/><path style="font-weight:700;font-size:109.227px;line-height:64px;font-family:&quot;BIZ UDGothic&quot;;-inkscape-font-specification:&quot;BIZ UDGothic, Bold&quot;;letter-spacing:0;word-spacing:0;fill:#fff;stroke-width:2.56px" d="M-63.675-284.334q-15.733-7.04-32.107-11.786l3.467-10.56q18.453 4.586 32.373 11.2zm-10.933 27.307q-13.12-5.76-32.107-11.787l4.587-10.666q16.32 4.32 31.68 11.466zm-25.227 29.387q21.813-1.814 34.187-6.614 18.293-6.986 28.746-24.96 6.987-12 11.04-30.346l10.774 6.24q-5.174 22.986-14.454 36.64-10.88 15.946-30.346 23.573-13.707 5.28-36.534 7.414zm113.707-56.587h67.947v10.133H52.965v47.04H86.62v10.134H9.072v-10.134h32.96v-47.04h-28.16Zm99.307-17.44h83.573l6.88 5.813q-2.986 11.147-7.786 18.614-9.014 14.133-26.987 21.12l-6.72-9.174q12.427-3.733 20.64-13.386 4.853-5.707 6.773-12.054H113.18zm34.187 23.04h12.213v9.173q0 20.64-4.587 31.894-5.813 14.293-22.613 23.253l-8.8-9.28q11.573-5.493 16.907-13.12 4.106-5.92 5.386-12.533 1.494-7.574 1.494-20.32z" id="text1" aria-label="シェア"/></svg>