<svg xmlns="http://www.w3.org/2000/svg" xml:space="preserve" width="880" height="200" viewBox="0 0 232.8 52.9"><rect width="232" height="52.1" x=".4" y=".4" fill="#e7e7e7" fill-rule="evenodd" stroke="#6f6f6f" stroke-linecap="round" stroke-miterlimit="12" stroke-width=".8" ry="15.9"/><g stroke-width=".4" aria-label="タイッツー" font-family="Rounded Mplus 1c" font-size="39.1" letter-spacing="0" style="line-height:10.1829px;-inkscape-font-specification:&quot;BIZ UDGothic, Normal&quot;" word-spacing="0"><path d="M43.4 27.2q-.5.4-1 .4-.6 0-1-.3-.4-.4-.5-1 0-.6.4-1 5.6-6 7-14.3 0-.6.5-1t1.1-.4q.6 0 1 .5.3.5.3 1l-.4 1.9v.2l.3.1H67q.9 0 1.6.7.6.6.6 1.5-.3 12.3-6.1 18.6-5.8 6.1-18.3 7.5-.6 0-1-.3-.5-.3-.6-1 0-.5.3-1 .3-.4.9-.4Q51 38 55.3 36q4.4-2 7-5.7.2-.3-.1-.4-4.8-2.5-11.5-5.4-.5-.3-.8-.9-.2-.6.2-1.1.3-.5.8-.7.6-.3 1.2 0 6.2 2.8 11.5 5.5.2.1.4-.1 1.8-4.3 2-10.9 0-.3-.3-.3H50.4q-.4 0-.4.2-2 6.1-6.6 11zM81 28.2q-.7.1-1.1-.2-.5-.4-.6-1 0-.5.3-1t.9-.5q7.6-1.3 14.9-4.9 7.3-3.6 12.1-8.4.4-.4 1-.4.5 0 .9.4t.4 1q0 .6-.4 1-4.4 4.4-10.5 7.7-.3.2-.2.5v18q0 .7-.5 1.2t-1.1.5-1.2-.5q-.4-.5-.4-1.1V24q0-.3-.4-.2Q88.3 27 81 28.2zM144 18.4q.4-.4 1-.4t1 .5q.4.5.4 1-.5 10.5-4.8 15.5-4.1 5-13.6 6.5-.5 0-1-.3-.4-.3-.5-.8-.2-.6.2-1 .3-.5.8-.6 5.8-1 9-3.1 3.4-2.2 5-6 1.7-4 2-10.3 0-.6.5-1zm-20 10.2-2-7.7q-.2-.5 0-1 .4-.5 1-.6.5-.2 1 .1.5.4.7.9 1.2 4.1 2 7.7.2.6-.1 1.1-.3.5-.9.6-.6.1-1-.2-.5-.3-.7-1zm11.3-.2q-.4.5-1 .6-.5.1-1-.2-.5-.3-.7-1l-2-8q-.2-.5 0-1 .4-.5 1-.7l1 .2q.6.4.7 1 1.3 4.5 2.1 8 .2.5-.1 1zM185.9 12.6q.5-.5 1.1-.4.6 0 1 .5.5.4.4 1-.6 13.2-5.9 19.4-5.2 6.2-17 8.2-.6 0-1.1-.3-.5-.3-.6-1-.1-.5.2-1 .3-.5.9-.6 7.3-1.2 11.6-4 4.2-2.8 6.4-7.7 2.1-5 2.5-13 0-.7.5-1.1zm-25 13q-.8-3.4-2.7-10-.1-.7.2-1.2.3-.5.9-.7.6-.1 1.1.2t.7 1q1.7 5.6 2.8 10 .1.6-.2 1.1-.3.6-1 .7-.6.2-1.1-.2-.5-.3-.7-1zm12.7.2q-.6.2-1.2-.1-.5-.4-.7-1L169 14q-.2-.6.1-1.1.3-.6 1-.7.6-.2 1.1.2.5.3.7 1 1.6 5.5 2.8 10.6.2.6-.2 1.1-.3.5-1 .7zM197.7 27.7q-.7 0-1.1-.4-.5-.4-.5-1 0-.7.5-1.1.4-.4 1-.4h28.8q.7 0 1.1.4.5.4.5 1 0 .7-.5 1.1-.4.4-1 .4z" style="-inkscape-font-specification:&quot;Rounded Mplus 1c, Normal&quot;" transform="matrix(.9 0 0 .9 21.1 4.2)"/></g><path fill="#a3a3a3" d="M16.1 49a2 2 0 0 1-1.2-.9l-.2-.4V10.8h32.7v33.5a5.4 5.4 0 0 1-3.7 4.5c-.7.2-1 .3-3.3.3-2.4 0-2.5 0-3-.3a2.4 2.4 0 0 1-.6-.6l-.2-.5V34.1c-.1-14.8-.1-14-.7-14.5-.6-.6-.7-.6-4.9-.6-3.4 0-4 0-4.3.2-.5.3-.7.5-1 1L25.7 32l-.1 12.2a5.4 5.4 0 0 1-3.7 4.5c-.6.2-1 .2-3 .3h-2.7z"/><path fill="#767676" d="M14.7 8.7c0-1.9 0-2.1.2-2.5a2.2 2.2 0 0 1 .6-.6c.4-.2.6-.2 15.5-.2 15 0 15.2 0 15.6.2l.6.6c.2.4.2.6.2 2.5v2.1H14.7Z"/></svg>