<svg xmlns="http://www.w3.org/2000/svg" xml:space="preserve" width="400" height="400" viewBox="0 0 105.8 105.8">
  <g fill="#f0f0f0" style="fill:#c4c4c4;fill-opacity:1">
    <path fill="#fff" d="M16.6 105.5c-1.2-.3-2.2-1-2.8-2.1l-.6-1V57.7L13 13.1h79.4v39.6c0 24 0 40.3-.2 41.4a13 13 0 0 1-9 10.8c-1.6.6-2.1.7-7.8.7-6 0-6.2 0-7.1-.6a6 6 0 0 1-1.6-1.6l-.6-1-.1-33c-.2-36-.1-34-1.5-35.2C63 33 62.9 33 52.7 33c-8.2 0-9.6.1-10.4.5a4.5 4.5 0 0 0-2.3 2.2c-.5 1-.5 2-.5 28.9 0 16.5-.1 28.6-.3 29.6-.7 5.1-4 9.1-8.7 10.8a59.2 59.2 0 0 1-13.9.6z" style="fill:#b6b6b6;fill-opacity:1"/>
    <path d="M18.8 101.4c-2.5-.4-3.4-.7-3.2-.9l2.4.3c3.4.5 8.7.7 10.5.2 1.9-.6 2.2-.4 1.2.2-1 .6-7.5.8-10.9.3zm52.7 0c-2.5-.4-3.2-.6-3-.8.1-.1 1.2 0 2.4.2 3.4.7 8.8.7 10.6.2 1.9-.6 2.2-.4 1.2.2-1.1.6-7.7.7-11 .2zM13 8c.2-4.7.2-5.2.8-6 .3-.5 1-1.2 1.4-1.5.9-.5 1.4-.5 37.5-.5C89 0 89.4 0 90.3.5L91.7 2c.5.8.6 1.3.7 6v5.1H13Z" style="fill:#6d6d6d;fill-opacity:1"/>
  </g>
  <path d="M62.191 50.77h-.479q-2.035 0-3.472-1.317-1.677-1.557-1.677-3.832 0-2.395 1.557-4.19 1.676-1.797 4.071-1.917 8.621-.718 17.003-.718 7.783 0 15.446.599 2.395.12 4.072 2.035 1.556 1.796 1.556 4.071 0 2.515-1.916 4.071-1.556 1.318-3.472 1.318h-.599q-8.262-.839-14.847-.839-9.1 0-17.243.719zm-2.993-32.928q.598-.12 1.197-.12 1.557 0 2.874 1.077 1.916 1.437 1.916 3.712 0 2.754-1.677 4.79-1.676 2.036-4.31 2.514-8.262 1.677-17.602 2.754-.838.12-1.078.958-1.317 6.227-3.592 14.968-7.064 27.66-16.284 49.452-1.078 2.754-3.832 3.952-1.557.718-3.113.718-1.317 0-2.635-.479-2.634-.838-3.592-3.472-.479-1.198-.479-2.275 0-1.437.6-2.754 4.669-9.58 9.458-22.99 4.79-13.531 7.903-25.265 1.317-4.55 2.754-10.777 0-.24-.24-.479-.119-.36-.478-.36-5.987.24-8.86.24-4.072 0-8.383-.12-2.634-.12-4.31-2.035-1.916-1.796-1.916-4.43 0-2.275 1.796-3.832 1.557-1.437 3.592-1.437h.48q4.31.36 8.86.36 5.987 0 11.255-.48.958 0 1.078-.957 1.197-6.586 1.317-8.023.24-1.916.36-3.951.239-2.874 2.274-4.79 1.796-1.796 4.311-1.796h.479l.718.12q2.754.12 4.43 2.394 1.198 1.677 1.198 3.593 0 .718-.12 1.317-.359 1.437-.718 3.592l-1.317 6.226q-.12.36.12.6.24.239.598.119 7.304-.958 14.968-2.634zM48.78 74.478q.36-2.395 2.395-3.831 1.676-1.318 3.712-1.318.36 0 .718.12 2.156.12 3.593 2.036.958 1.437.958 3.113 0 .479-.12.958-.48 2.874-.48 4.91 0 2.274.72 4.07.838 1.677 2.634 3.233 1.915 1.557 5.747 2.395 3.832.719 9.34.719 8.381 0 18.2-1.437h.838q1.796 0 3.353 1.197 1.676 1.557 1.676 3.832 0 2.754-1.796 4.909-1.796 1.916-4.55 2.275-8.74.958-17.841.958-14.728 0-22.391-4.79-7.544-4.79-7.544-13.77 0-4.19.838-9.579z" aria-label="ãŸ" style="font-size:122.613px;font-family:&quot;Gen Jyuu Gothic&quot;;-inkscape-font-specification:&quot;Gen Jyuu Gothic, Normal&quot;;fill:#3f3f3f;stroke-width:.306532" transform="scale(1.001 .999)"/>
</svg>
